<svg aria-roledescription="er" role="graphics-document document" viewBox="0 0 795.3297119140625 876" style="max-width: 795.33px; background-color: white;" xmlns:xlink="http://www.w3.org/1999/xlink" xmlns="http://www.w3.org/2000/svg" width="100%" id="my-svg"><style>#my-svg{font-family:"trebuchet ms",verdana,arial,sans-serif;font-size:16px;fill:#333;}#my-svg .error-icon{fill:#552222;}#my-svg .error-text{fill:#552222;stroke:#552222;}#my-svg .edge-thickness-normal{stroke-width:2px;}#my-svg .edge-thickness-thick{stroke-width:3.5px;}#my-svg .edge-pattern-solid{stroke-dasharray:0;}#my-svg .edge-pattern-dashed{stroke-dasharray:3;}#my-svg .edge-pattern-dotted{stroke-dasharray:2;}#my-svg .marker{fill:#333333;stroke:#333333;}#my-svg .marker.cross{stroke:#333333;}#my-svg svg{font-family:"trebuchet ms",verdana,arial,sans-serif;font-size:16px;}#my-svg .entityBox{fill:#ECECFF;stroke:#9370DB;}#my-svg .attributeBoxOdd{fill:#ffffff;stroke:#9370DB;}#my-svg .attributeBoxEven{fill:#f2f2f2;stroke:#9370DB;}#my-svg .relationshipLabelBox{fill:hsl(80, 100%, 96.2745098039%);opacity:0.7;background-color:hsl(80, 100%, 96.2745098039%);}#my-svg .relationshipLabelBox rect{opacity:0.5;}#my-svg .relationshipLine{stroke:#333333;}#my-svg .entityTitleText{text-anchor:middle;font-size:18px;fill:#333;}#my-svg #MD_PARENT_START{fill:#f5f5f5!important;stroke:#333333!important;stroke-width:1;}#my-svg #MD_PARENT_END{fill:#f5f5f5!important;stroke:#333333!important;stroke-width:1;}#my-svg :root{--mermaid-font-family:"trebuchet ms",verdana,arial,sans-serif;}</style><g/><defs><marker orient="auto" markerHeight="240" markerWidth="190" refY="7" refX="0" id="MD_PARENT_START"><path d="M 18,7 L9,13 L1,7 L9,1 Z"/></marker></defs><defs><marker orient="auto" markerHeight="28" markerWidth="20" refY="7" refX="19" id="MD_PARENT_END"><path d="M 18,7 L9,13 L1,7 L9,1 Z"/></marker></defs><defs><marker orient="auto" markerHeight="18" markerWidth="18" refY="9" refX="0" id="ONLY_ONE_START"><path d="M9,0 L9,18 M15,0 L15,18" fill="none" stroke="gray"/></marker></defs><defs><marker orient="auto" markerHeight="18" markerWidth="18" refY="9" refX="18" id="ONLY_ONE_END"><path d="M3,0 L3,18 M9,0 L9,18" fill="none" stroke="gray"/></marker></defs><defs><marker orient="auto" markerHeight="18" markerWidth="30" refY="9" refX="0" id="ZERO_OR_ONE_START"><circle r="6" cy="9" cx="21" fill="white" stroke="gray"/><path d="M9,0 L9,18" fill="none" stroke="gray"/></marker></defs><defs><marker orient="auto" markerHeight="18" markerWidth="30" refY="9" refX="30" id="ZERO_OR_ONE_END"><circle r="6" cy="9" cx="9" fill="white" stroke="gray"/><path d="M21,0 L21,18" fill="none" stroke="gray"/></marker></defs><defs><marker orient="auto" markerHeight="36" markerWidth="45" refY="18" refX="18" id="ONE_OR_MORE_START"><path d="M0,18 Q 18,0 36,18 Q 18,36 0,18 M42,9 L42,27" fill="none" stroke="gray"/></marker></defs><defs><marker orient="auto" markerHeight="36" markerWidth="45" refY="18" refX="27" id="ONE_OR_MORE_END"><path d="M3,9 L3,27 M9,18 Q27,0 45,18 Q27,36 9,18" fill="none" stroke="gray"/></marker></defs><defs><marker orient="auto" markerHeight="36" markerWidth="57" refY="18" refX="18" id="ZERO_OR_MORE_START"><circle r="6" cy="18" cx="48" fill="white" stroke="gray"/><path d="M0,18 Q18,0 36,18 Q18,36 0,18" fill="none" stroke="gray"/></marker></defs><defs><marker orient="auto" markerHeight="36" markerWidth="57" refY="18" refX="39" id="ZERO_OR_MORE_END"><circle r="6" cy="18" cx="9" fill="white" stroke="gray"/><path d="M21,18 Q39,0 57,18 Q39,36 21,18" fill="none" stroke="gray"/></marker></defs><path style="stroke: gray; fill: none;" marker-start="url(#ONLY_ONE_START)" marker-end="url(#ONLY_ONE_END)" d="M346.785,126.102L304.143,142.752C261.502,159.402,176.218,192.701,133.577,228.684C90.935,264.667,90.935,303.333,90.935,322.667L90.935,342" class="er relationshipLine"/><path style="stroke: gray; fill: none;" marker-start="url(#ONLY_ONE_START)" marker-end="url(#ONLY_ONE_END)" d="M299.517,443L293.071,456.833C286.624,470.667,273.731,498.333,256.766,520.5C239.802,542.667,218.767,559.333,208.249,567.667L197.731,576" class="er relationshipLine"/><path style="stroke: gray; fill: none;" marker-start="url(#ONLY_ONE_START)" marker-end="url(#ONLY_ONE_END)" d="M361.823,443L368.241,456.833C374.658,470.667,387.493,498.333,404.401,520.5C421.309,542.667,442.289,559.333,452.78,567.667L463.27,576" class="er relationshipLine"/><path style="stroke: gray; fill: none;" marker-start="url(#ONLY_ONE_START)" marker-end="url(#ZERO_OR_MORE_END)" d="M90.935,410L90.935,429.333C90.935,448.667,90.935,487.333,95.321,515C99.707,542.667,108.479,559.333,112.865,567.667L117.251,576" class="er relationshipLine"/><path style="stroke: gray; fill: none;" marker-start="url(#ONLY_ONE_START)" marker-end="url(#ZERO_OR_MORE_END)" d="M569.917,476L569.917,484.333C569.917,492.667,569.917,509.333,565.531,526C561.145,542.667,552.373,559.333,547.987,567.667L543.601,576" class="er relationshipLine"/><path style="stroke: gray; fill: none;" marker-start="url(#ONLY_ONE_START)" marker-end="url(#ZERO_OR_MORE_END)" d="M140.935,666L140.935,674.333C140.935,682.667,140.935,699.333,173.897,718.938C206.858,738.542,272.782,761.084,305.744,772.355L338.706,783.626" class="er relationshipLine"/><path style="stroke: gray; fill: none;" marker-start="url(#ONLY_ONE_START)" marker-end="url(#ZERO_OR_MORE_END)" d="M490.731,126.377L532.843,142.981C574.955,159.585,659.179,192.792,701.29,234.396C743.402,276,743.402,326,743.402,376C743.402,426,743.402,476,743.402,516.833C743.402,557.667,743.402,589.333,743.402,621C743.402,652.667,743.402,684.333,702.637,712.096C661.872,739.858,580.341,763.716,539.576,775.645L498.811,787.574" class="er relationshipLine"/><g transform="translate(346.7848777770996,20 )" id="entity-EMPLOYEE-fcaaba41-0847-5740-91ce-65189257a19b"><rect height="156" width="143.94647216796875" y="0" x="0" class="er entityBox"/><text style="dominant-baseline: middle; text-anchor: middle; font-size: 12px;" transform="translate(71.97323608398438,12)" y="0" x="0" id="text-entity-EMPLOYEE-fcaaba41-0847-5740-91ce-65189257a19b" class="er entityLabel">EMPLOYEE</text><rect height="22" width="53.69499206542969" y="24" x="0" class="er attributeBoxOdd"/><text style="dominant-baseline: middle; font-size: 10.2px;" transform="translate(5,35)" y="0" x="0" id="text-entity-EMPLOYEE-fcaaba41-0847-5740-91ce-65189257a19b-attr-1-type" class="er entityLabel">NUMERIC</text><rect height="22" width="67.56379699707031" y="24" x="53.69499206542969" class="er attributeBoxOdd"/><text style="dominant-baseline: middle; font-size: 10.2px;" transform="translate(58.69499206542969,35)" y="0" x="0" id="text-entity-EMPLOYEE-fcaaba41-0847-5740-91ce-65189257a19b-attr-1-name" class="er entityLabel">emp_id</text><rect height="22" width="22.68768310546875" y="24" x="121.2587890625" class="er attributeBoxOdd"/><text style="dominant-baseline: middle; font-size: 10.2px;" transform="translate(126.2587890625,35)" y="0" x="0" id="text-entity-EMPLOYEE-fcaaba41-0847-5740-91ce-65189257a19b-attr-1-key" class="er entityLabel">PK</text><rect height="22" width="53.69499206542969" y="46" x="0" class="er attributeBoxEven"/><text style="dominant-baseline: middle; font-size: 10.2px;" transform="translate(5,57)" y="0" x="0" id="text-entity-EMPLOYEE-fcaaba41-0847-5740-91ce-65189257a19b-attr-2-type" class="er entityLabel">VARCHAR</text><rect height="22" width="67.56379699707031" y="46" x="53.69499206542969" class="er attributeBoxEven"/><text style="dominant-baseline: middle; font-size: 10.2px;" transform="translate(58.69499206542969,57)" y="0" x="0" id="text-entity-EMPLOYEE-fcaaba41-0847-5740-91ce-65189257a19b-attr-2-name" class="er entityLabel">emp_first</text><rect height="22" width="22.68768310546875" y="46" x="121.2587890625" class="er attributeBoxEven"/><text style="dominant-baseline: middle; font-size: 10.2px;" transform="translate(126.2587890625,57)" y="0" x="0" id="text-entity-EMPLOYEE-fcaaba41-0847-5740-91ce-65189257a19b-attr-2-key" class="er entityLabel"/><rect height="22" width="53.69499206542969" y="68" x="0" class="er attributeBoxOdd"/><text style="dominant-baseline: middle; font-size: 10.2px;" transform="translate(5,79)" y="0" x="0" id="text-entity-EMPLOYEE-fcaaba41-0847-5740-91ce-65189257a19b-attr-3-type" class="er entityLabel">VARCHAR</text><rect height="22" width="67.56379699707031" y="68" x="53.69499206542969" class="er attributeBoxOdd"/><text style="dominant-baseline: middle; font-size: 10.2px;" transform="translate(58.69499206542969,79)" y="0" x="0" id="text-entity-EMPLOYEE-fcaaba41-0847-5740-91ce-65189257a19b-attr-3-name" class="er entityLabel">emp_middle</text><rect height="22" width="22.68768310546875" y="68" x="121.2587890625" class="er attributeBoxOdd"/><text style="dominant-baseline: middle; font-size: 10.2px;" transform="translate(126.2587890625,79)" y="0" x="0" id="text-entity-EMPLOYEE-fcaaba41-0847-5740-91ce-65189257a19b-attr-3-key" class="er entityLabel"/><rect height="22" width="53.69499206542969" y="90" x="0" class="er attributeBoxEven"/><text style="dominant-baseline: middle; font-size: 10.2px;" transform="translate(5,101)" y="0" x="0" id="text-entity-EMPLOYEE-fcaaba41-0847-5740-91ce-65189257a19b-attr-4-type" class="er entityLabel">VARCHAR</text><rect height="22" width="67.56379699707031" y="90" x="53.69499206542969" class="er attributeBoxEven"/><text style="dominant-baseline: middle; font-size: 10.2px;" transform="translate(58.69499206542969,101)" y="0" x="0" id="text-entity-EMPLOYEE-fcaaba41-0847-5740-91ce-65189257a19b-attr-4-name" class="er entityLabel">emp_last</text><rect height="22" width="22.68768310546875" y="90" x="121.2587890625" class="er attributeBoxEven"/><text style="dominant-baseline: middle; font-size: 10.2px;" transform="translate(126.2587890625,101)" y="0" x="0" id="text-entity-EMPLOYEE-fcaaba41-0847-5740-91ce-65189257a19b-attr-4-key" class="er entityLabel"/><rect height="22" width="53.69499206542969" y="112" x="0" class="er attributeBoxOdd"/><text style="dominant-baseline: middle; font-size: 10.2px;" transform="translate(5,123)" y="0" x="0" id="text-entity-EMPLOYEE-fcaaba41-0847-5740-91ce-65189257a19b-attr-5-type" class="er entityLabel">CHAR</text><rect height="22" width="67.56379699707031" y="112" x="53.69499206542969" class="er attributeBoxOdd"/><text style="dominant-baseline: middle; font-size: 10.2px;" transform="translate(58.69499206542969,123)" y="0" x="0" id="text-entity-EMPLOYEE-fcaaba41-0847-5740-91ce-65189257a19b-attr-5-name" class="er entityLabel">emp_gender</text><rect height="22" width="22.68768310546875" y="112" x="121.2587890625" class="er attributeBoxOdd"/><text style="dominant-baseline: middle; font-size: 10.2px;" transform="translate(126.2587890625,123)" y="0" x="0" id="text-entity-EMPLOYEE-fcaaba41-0847-5740-91ce-65189257a19b-attr-5-key" class="er entityLabel"/><rect height="22" width="53.69499206542969" y="134" x="0" class="er attributeBoxEven"/><text style="dominant-baseline: middle; font-size: 10.2px;" transform="translate(5,145)" y="0" x="0" id="text-entity-EMPLOYEE-fcaaba41-0847-5740-91ce-65189257a19b-attr-6-type" class="er entityLabel">NUMERIC</text><rect height="22" width="67.56379699707031" y="134" x="53.69499206542969" class="er attributeBoxEven"/><text style="dominant-baseline: middle; font-size: 10.2px;" transform="translate(58.69499206542969,145)" y="0" x="0" id="text-entity-EMPLOYEE-fcaaba41-0847-5740-91ce-65189257a19b-attr-6-name" class="er entityLabel">emp_salary</text><rect height="22" width="22.68768310546875" y="134" x="121.2587890625" class="er attributeBoxEven"/><text style="dominant-baseline: middle; font-size: 10.2px;" transform="translate(126.2587890625,145)" y="0" x="0" id="text-entity-EMPLOYEE-fcaaba41-0847-5740-91ce-65189257a19b-attr-6-key" class="er entityLabel"/></g><g transform="translate(20,342 )" id="entity-MANAGER-4fa2df0f-d661-5f72-a48e-5506f51a6d13"><rect height="68" width="141.8699493408203" y="0" x="0" class="er entityBox"/><text style="dominant-baseline: middle; text-anchor: middle; font-size: 12px;" transform="translate(70.93497467041016,12)" y="0" x="0" id="text-entity-MANAGER-4fa2df0f-d661-5f72-a48e-5506f51a6d13" class="er entityLabel">MANAGER</text><rect height="22" width="50.703125" y="24" x="0" class="er attributeBoxOdd"/><text style="dominant-baseline: middle; font-size: 10.2px;" transform="translate(5,35)" y="0" x="0" id="text-entity-MANAGER-4fa2df0f-d661-5f72-a48e-5506f51a6d13-attr-1-type" class="er entityLabel">NUMERIC</text><rect height="22" width="68.47914123535156" y="24" x="50.703125" class="er attributeBoxOdd"/><text style="dominant-baseline: middle; font-size: 10.2px;" transform="translate(55.703125,35)" y="0" x="0" id="text-entity-MANAGER-4fa2df0f-d661-5f72-a48e-5506f51a6d13-attr-1-name" class="er entityLabel">mng_emp_id</text><rect height="22" width="22.68768310546875" y="24" x="119.18226623535156" class="er attributeBoxOdd"/><text style="dominant-baseline: middle; font-size: 10.2px;" transform="translate(124.18226623535156,35)" y="0" x="0" id="text-entity-MANAGER-4fa2df0f-d661-5f72-a48e-5506f51a6d13-attr-1-key" class="er entityLabel">PK</text><rect height="22" width="50.703125" y="46" x="0" class="er attributeBoxEven"/><text style="dominant-baseline: middle; font-size: 10.2px;" transform="translate(5,57)" y="0" x="0" id="text-entity-MANAGER-4fa2df0f-d661-5f72-a48e-5506f51a6d13-attr-2-type" class="er entityLabel">NUMERIC</text><rect height="22" width="68.47914123535156" y="46" x="50.703125" class="er attributeBoxEven"/><text style="dominant-baseline: middle; font-size: 10.2px;" transform="translate(55.703125,57)" y="0" x="0" id="text-entity-MANAGER-4fa2df0f-d661-5f72-a48e-5506f51a6d13-attr-2-name" class="er entityLabel">mng_bonus</text><rect height="22" width="22.68768310546875" y="46" x="119.18226623535156" class="er attributeBoxEven"/><text style="dominant-baseline: middle; font-size: 10.2px;" transform="translate(124.18226623535156,57)" y="0" x="0" id="text-entity-MANAGER-4fa2df0f-d661-5f72-a48e-5506f51a6d13-attr-2-key" class="er entityLabel"/></g><g transform="translate(261.8699493408203,309 )" id="entity-PROJECT-7694b060-3426-5f95-980b-c6c423c4d7b8"><rect height="134" width="137.74081420898438" y="0" x="0" class="er entityBox"/><text style="dominant-baseline: middle; text-anchor: middle; font-size: 12px;" transform="translate(68.87040710449219,12)" y="0" x="0" id="text-entity-PROJECT-7694b060-3426-5f95-980b-c6c423c4d7b8" class="er entityLabel">PROJECT</text><rect height="22" width="53.69499206542969" y="24" x="0" class="er attributeBoxOdd"/><text style="dominant-baseline: middle; font-size: 10.2px;" transform="translate(5,35)" y="0" x="0" id="text-entity-PROJECT-7694b060-3426-5f95-980b-c6c423c4d7b8-attr-1-type" class="er entityLabel">NUMERIC</text><rect height="22" width="61.35813903808594" y="24" x="53.69499206542969" class="er attributeBoxOdd"/><text style="dominant-baseline: middle; font-size: 10.2px;" transform="translate(58.69499206542969,35)" y="0" x="0" id="text-entity-PROJECT-7694b060-3426-5f95-980b-c6c423c4d7b8-attr-1-name" class="er entityLabel">prj_num</text><rect height="22" width="22.68768310546875" y="24" x="115.05313110351562" class="er attributeBoxOdd"/><text style="dominant-baseline: middle; font-size: 10.2px;" transform="translate(120.05313110351562,35)" y="0" x="0" id="text-entity-PROJECT-7694b060-3426-5f95-980b-c6c423c4d7b8-attr-1-key" class="er entityLabel">PK</text><rect height="22" width="53.69499206542969" y="46" x="0" class="er attributeBoxEven"/><text style="dominant-baseline: middle; font-size: 10.2px;" transform="translate(5,57)" y="0" x="0" id="text-entity-PROJECT-7694b060-3426-5f95-980b-c6c423c4d7b8-attr-2-type" class="er entityLabel">VARCHAR</text><rect height="22" width="61.35813903808594" y="46" x="53.69499206542969" class="er attributeBoxEven"/><text style="dominant-baseline: middle; font-size: 10.2px;" transform="translate(58.69499206542969,57)" y="0" x="0" id="text-entity-PROJECT-7694b060-3426-5f95-980b-c6c423c4d7b8-attr-2-name" class="er entityLabel">prj_desc</text><rect height="22" width="22.68768310546875" y="46" x="115.05313110351562" class="er attributeBoxEven"/><text style="dominant-baseline: middle; font-size: 10.2px;" transform="translate(120.05313110351562,57)" y="0" x="0" id="text-entity-PROJECT-7694b060-3426-5f95-980b-c6c423c4d7b8-attr-2-key" class="er entityLabel"/><rect height="22" width="53.69499206542969" y="68" x="0" class="er attributeBoxOdd"/><text style="dominant-baseline: middle; font-size: 10.2px;" transform="translate(5,79)" y="0" x="0" id="text-entity-PROJECT-7694b060-3426-5f95-980b-c6c423c4d7b8-attr-3-type" class="er entityLabel">DATE</text><rect height="22" width="61.35813903808594" y="68" x="53.69499206542969" class="er attributeBoxOdd"/><text style="dominant-baseline: middle; font-size: 10.2px;" transform="translate(58.69499206542969,79)" y="0" x="0" id="text-entity-PROJECT-7694b060-3426-5f95-980b-c6c423c4d7b8-attr-3-name" class="er entityLabel">prj_startdt</text><rect height="22" width="22.68768310546875" y="68" x="115.05313110351562" class="er attributeBoxOdd"/><text style="dominant-baseline: middle; font-size: 10.2px;" transform="translate(120.05313110351562,79)" y="0" x="0" id="text-entity-PROJECT-7694b060-3426-5f95-980b-c6c423c4d7b8-attr-3-key" class="er entityLabel"/><rect height="22" width="53.69499206542969" y="90" x="0" class="er attributeBoxEven"/><text style="dominant-baseline: middle; font-size: 10.2px;" transform="translate(5,101)" y="0" x="0" id="text-entity-PROJECT-7694b060-3426-5f95-980b-c6c423c4d7b8-attr-4-type" class="er entityLabel">NUMERIC</text><rect height="22" width="61.35813903808594" y="90" x="53.69499206542969" class="er attributeBoxEven"/><text style="dominant-baseline: middle; font-size: 10.2px;" transform="translate(58.69499206542969,101)" y="0" x="0" id="text-entity-PROJECT-7694b060-3426-5f95-980b-c6c423c4d7b8-attr-4-name" class="er entityLabel">prj_budget</text><rect height="22" width="22.68768310546875" y="90" x="115.05313110351562" class="er attributeBoxEven"/><text style="dominant-baseline: middle; font-size: 10.2px;" transform="translate(120.05313110351562,101)" y="0" x="0" id="text-entity-PROJECT-7694b060-3426-5f95-980b-c6c423c4d7b8-attr-4-key" class="er entityLabel"/><rect height="22" width="53.69499206542969" y="112" x="0" class="er attributeBoxOdd"/><text style="dominant-baseline: middle; font-size: 10.2px;" transform="translate(5,123)" y="0" x="0" id="text-entity-PROJECT-7694b060-3426-5f95-980b-c6c423c4d7b8-attr-5-type" class="er entityLabel">NUMERIC</text><rect height="22" width="61.35813903808594" y="112" x="53.69499206542969" class="er attributeBoxOdd"/><text style="dominant-baseline: middle; font-size: 10.2px;" transform="translate(58.69499206542969,123)" y="0" x="0" id="text-entity-PROJECT-7694b060-3426-5f95-980b-c6c423c4d7b8-attr-5-name" class="er entityLabel">prj_actcst</text><rect height="22" width="22.68768310546875" y="112" x="115.05313110351562" class="er attributeBoxOdd"/><text style="dominant-baseline: middle; font-size: 10.2px;" transform="translate(120.05313110351562,123)" y="0" x="0" id="text-entity-PROJECT-7694b060-3426-5f95-980b-c6c423c4d7b8-attr-5-key" class="er entityLabel"/></g><g transform="translate(61.06256866455078,576 )" id="entity-INTERNALPROJECT-a69cc138-4577-57a8-aff1-bcf0556dcb94"><rect height="90" width="159.74481201171875" y="0" x="0" class="er entityBox"/><text style="dominant-baseline: middle; text-anchor: middle; font-size: 12px;" transform="translate(79.87240600585938,12)" y="0" x="0" id="text-entity-INTERNALPROJECT-a69cc138-4577-57a8-aff1-bcf0556dcb94" class="er entityLabel">INTERNAL_PROJECT</text><rect height="22" width="50.703125" y="24" x="0" class="er attributeBoxOdd"/><text style="dominant-baseline: middle; font-size: 10.2px;" transform="translate(5,35)" y="0" x="0" id="text-entity-INTERNALPROJECT-a69cc138-4577-57a8-aff1-bcf0556dcb94-attr-1-type" class="er entityLabel">NUMERIC</text><rect height="22" width="86.35400390625" y="24" x="50.703125" class="er attributeBoxOdd"/><text style="dominant-baseline: middle; font-size: 10.2px;" transform="translate(55.703125,35)" y="0" x="0" id="text-entity-INTERNALPROJECT-a69cc138-4577-57a8-aff1-bcf0556dcb94-attr-1-name" class="er entityLabel">int_prj_num</text><rect height="22" width="22.68768310546875" y="24" x="137.05712890625" class="er attributeBoxOdd"/><text style="dominant-baseline: middle; font-size: 10.2px;" transform="translate(142.05712890625,35)" y="0" x="0" id="text-entity-INTERNALPROJECT-a69cc138-4577-57a8-aff1-bcf0556dcb94-attr-1-key" class="er entityLabel">PK</text><rect height="22" width="50.703125" y="46" x="0" class="er attributeBoxEven"/><text style="dominant-baseline: middle; font-size: 10.2px;" transform="translate(5,57)" y="0" x="0" id="text-entity-INTERNALPROJECT-a69cc138-4577-57a8-aff1-bcf0556dcb94-attr-2-type" class="er entityLabel">CHAR</text><rect height="22" width="86.35400390625" y="46" x="50.703125" class="er attributeBoxEven"/><text style="dominant-baseline: middle; font-size: 10.2px;" transform="translate(55.703125,57)" y="0" x="0" id="text-entity-INTERNALPROJECT-a69cc138-4577-57a8-aff1-bcf0556dcb94-attr-2-name" class="er entityLabel">int_rating</text><rect height="22" width="22.68768310546875" y="46" x="137.05712890625" class="er attributeBoxEven"/><text style="dominant-baseline: middle; font-size: 10.2px;" transform="translate(142.05712890625,57)" y="0" x="0" id="text-entity-INTERNALPROJECT-a69cc138-4577-57a8-aff1-bcf0556dcb94-attr-2-key" class="er entityLabel"/><rect height="22" width="50.703125" y="68" x="0" class="er attributeBoxOdd"/><text style="dominant-baseline: middle; font-size: 10.2px;" transform="translate(5,79)" y="0" x="0" id="text-entity-INTERNALPROJECT-a69cc138-4577-57a8-aff1-bcf0556dcb94-attr-3-type" class="er entityLabel">NUMERIC</text><rect height="22" width="86.35400390625" y="68" x="50.703125" class="er attributeBoxOdd"/><text style="dominant-baseline: middle; font-size: 10.2px;" transform="translate(55.703125,79)" y="0" x="0" id="text-entity-INTERNALPROJECT-a69cc138-4577-57a8-aff1-bcf0556dcb94-attr-3-name" class="er entityLabel">int_mng_emp_id</text><rect height="22" width="22.68768310546875" y="68" x="137.05712890625" class="er attributeBoxOdd"/><text style="dominant-baseline: middle; font-size: 10.2px;" transform="translate(142.05712890625,79)" y="0" x="0" id="text-entity-INTERNALPROJECT-a69cc138-4577-57a8-aff1-bcf0556dcb94-attr-3-key" class="er entityLabel"/></g><g transform="translate(443.25267028808594,576 )" id="entity-EXTERNALPROJECT-4d3a5e1f-2919-5f50-bb4e-a86df0aa2560"><rect height="90" width="153.32858276367188" y="0" x="0" class="er entityBox"/><text style="dominant-baseline: middle; text-anchor: middle; font-size: 12px;" transform="translate(76.66429138183594,12)" y="0" x="0" id="text-entity-EXTERNALPROJECT-4d3a5e1f-2919-5f50-bb4e-a86df0aa2560" class="er entityLabel">EXTERNAL_PROJECT</text><rect height="22" width="53.69499206542969" y="24" x="0" class="er attributeBoxOdd"/><text style="dominant-baseline: middle; font-size: 10.2px;" transform="translate(5,35)" y="0" x="0" id="text-entity-EXTERNALPROJECT-4d3a5e1f-2919-5f50-bb4e-a86df0aa2560-attr-1-type" class="er entityLabel">NUMERIC</text><rect height="22" width="76.94590759277344" y="24" x="53.69499206542969" class="er attributeBoxOdd"/><text style="dominant-baseline: middle; font-size: 10.2px;" transform="translate(58.69499206542969,35)" y="0" x="0" id="text-entity-EXTERNALPROJECT-4d3a5e1f-2919-5f50-bb4e-a86df0aa2560-attr-1-name" class="er entityLabel">ext_prj_num</text><rect height="22" width="22.68768310546875" y="24" x="130.64089965820312" class="er attributeBoxOdd"/><text style="dominant-baseline: middle; font-size: 10.2px;" transform="translate(135.64089965820312,35)" y="0" x="0" id="text-entity-EXTERNALPROJECT-4d3a5e1f-2919-5f50-bb4e-a86df0aa2560-attr-1-key" class="er entityLabel">PK</text><rect height="22" width="53.69499206542969" y="46" x="0" class="er attributeBoxEven"/><text style="dominant-baseline: middle; font-size: 10.2px;" transform="translate(5,57)" y="0" x="0" id="text-entity-EXTERNALPROJECT-4d3a5e1f-2919-5f50-bb4e-a86df0aa2560-attr-2-type" class="er entityLabel">NUMERIC</text><rect height="22" width="76.94590759277344" y="46" x="53.69499206542969" class="er attributeBoxEven"/><text style="dominant-baseline: middle; font-size: 10.2px;" transform="translate(58.69499206542969,57)" y="0" x="0" id="text-entity-EXTERNALPROJECT-4d3a5e1f-2919-5f50-bb4e-a86df0aa2560-attr-2-name" class="er entityLabel">ext_contcost</text><rect height="22" width="22.68768310546875" y="46" x="130.64089965820312" class="er attributeBoxEven"/><text style="dominant-baseline: middle; font-size: 10.2px;" transform="translate(135.64089965820312,57)" y="0" x="0" id="text-entity-EXTERNALPROJECT-4d3a5e1f-2919-5f50-bb4e-a86df0aa2560-attr-2-key" class="er entityLabel"/><rect height="22" width="53.69499206542969" y="68" x="0" class="er attributeBoxOdd"/><text style="dominant-baseline: middle; font-size: 10.2px;" transform="translate(5,79)" y="0" x="0" id="text-entity-EXTERNALPROJECT-4d3a5e1f-2919-5f50-bb4e-a86df0aa2560-attr-3-type" class="er entityLabel">VARCHAR</text><rect height="22" width="76.94590759277344" y="68" x="53.69499206542969" class="er attributeBoxOdd"/><text style="dominant-baseline: middle; font-size: 10.2px;" transform="translate(58.69499206542969,79)" y="0" x="0" id="text-entity-EXTERNALPROJECT-4d3a5e1f-2919-5f50-bb4e-a86df0aa2560-attr-3-name" class="er entityLabel">ext_ven_name</text><rect height="22" width="22.68768310546875" y="68" x="130.64089965820312" class="er attributeBoxOdd"/><text style="dominant-baseline: middle; font-size: 10.2px;" transform="translate(135.64089965820312,79)" y="0" x="0" id="text-entity-EXTERNALPROJECT-4d3a5e1f-2919-5f50-bb4e-a86df0aa2560-attr-3-key" class="er entityLabel"/></g><g transform="translate(499.6107635498047,276 )" id="entity-VENDOR-42f96638-3fb7-5a4d-8ac7-43724bd8799c"><rect height="200" width="140.61239624023438" y="0" x="0" class="er entityBox"/><text style="dominant-baseline: middle; text-anchor: middle; font-size: 12px;" transform="translate(70.30619812011719,12)" y="0" x="0" id="text-entity-VENDOR-42f96638-3fb7-5a4d-8ac7-43724bd8799c" class="er entityLabel">VENDOR</text><rect height="22" width="53.69499206542969" y="24" x="0" class="er attributeBoxOdd"/><text style="dominant-baseline: middle; font-size: 10.2px;" transform="translate(5,35)" y="0" x="0" id="text-entity-VENDOR-42f96638-3fb7-5a4d-8ac7-43724bd8799c-attr-1-type" class="er entityLabel">VARCHAR</text><rect height="22" width="64.22972106933594" y="24" x="53.69499206542969" class="er attributeBoxOdd"/><text style="dominant-baseline: middle; font-size: 10.2px;" transform="translate(58.69499206542969,35)" y="0" x="0" id="text-entity-VENDOR-42f96638-3fb7-5a4d-8ac7-43724bd8799c-attr-1-name" class="er entityLabel">ven_name</text><rect height="22" width="22.68768310546875" y="24" x="117.92471313476562" class="er attributeBoxOdd"/><text style="dominant-baseline: middle; font-size: 10.2px;" transform="translate(122.92471313476562,35)" y="0" x="0" id="text-entity-VENDOR-42f96638-3fb7-5a4d-8ac7-43724bd8799c-attr-1-key" class="er entityLabel">PK</text><rect height="22" width="53.69499206542969" y="46" x="0" class="er attributeBoxEven"/><text style="dominant-baseline: middle; font-size: 10.2px;" transform="translate(5,57)" y="0" x="0" id="text-entity-VENDOR-42f96638-3fb7-5a4d-8ac7-43724bd8799c-attr-2-type" class="er entityLabel">VARCHAR</text><rect height="22" width="64.22972106933594" y="46" x="53.69499206542969" class="er attributeBoxEven"/><text style="dominant-baseline: middle; font-size: 10.2px;" transform="translate(58.69499206542969,57)" y="0" x="0" id="text-entity-VENDOR-42f96638-3fb7-5a4d-8ac7-43724bd8799c-attr-2-name" class="er entityLabel">ven_street</text><rect height="22" width="22.68768310546875" y="46" x="117.92471313476562" class="er attributeBoxEven"/><text style="dominant-baseline: middle; font-size: 10.2px;" transform="translate(122.92471313476562,57)" y="0" x="0" id="text-entity-VENDOR-42f96638-3fb7-5a4d-8ac7-43724bd8799c-attr-2-key" class="er entityLabel"/><rect height="22" width="53.69499206542969" y="68" x="0" class="er attributeBoxOdd"/><text style="dominant-baseline: middle; font-size: 10.2px;" transform="translate(5,79)" y="0" x="0" id="text-entity-VENDOR-42f96638-3fb7-5a4d-8ac7-43724bd8799c-attr-3-type" class="er entityLabel">VARCHAR</text><rect height="22" width="64.22972106933594" y="68" x="53.69499206542969" class="er attributeBoxOdd"/><text style="dominant-baseline: middle; font-size: 10.2px;" transform="translate(58.69499206542969,79)" y="0" x="0" id="text-entity-VENDOR-42f96638-3fb7-5a4d-8ac7-43724bd8799c-attr-3-name" class="er entityLabel">ven_city</text><rect height="22" width="22.68768310546875" y="68" x="117.92471313476562" class="er attributeBoxOdd"/><text style="dominant-baseline: middle; font-size: 10.2px;" transform="translate(122.92471313476562,79)" y="0" x="0" id="text-entity-VENDOR-42f96638-3fb7-5a4d-8ac7-43724bd8799c-attr-3-key" class="er entityLabel"/><rect height="22" width="53.69499206542969" y="90" x="0" class="er attributeBoxEven"/><text style="dominant-baseline: middle; font-size: 10.2px;" transform="translate(5,101)" y="0" x="0" id="text-entity-VENDOR-42f96638-3fb7-5a4d-8ac7-43724bd8799c-attr-4-type" class="er entityLabel">CHAR</text><rect height="22" width="64.22972106933594" y="90" x="53.69499206542969" class="er attributeBoxEven"/><text style="dominant-baseline: middle; font-size: 10.2px;" transform="translate(58.69499206542969,101)" y="0" x="0" id="text-entity-VENDOR-42f96638-3fb7-5a4d-8ac7-43724bd8799c-attr-4-name" class="er entityLabel">ven_state</text><rect height="22" width="22.68768310546875" y="90" x="117.92471313476562" class="er attributeBoxEven"/><text style="dominant-baseline: middle; font-size: 10.2px;" transform="translate(122.92471313476562,101)" y="0" x="0" id="text-entity-VENDOR-42f96638-3fb7-5a4d-8ac7-43724bd8799c-attr-4-key" class="er entityLabel"/><rect height="22" width="53.69499206542969" y="112" x="0" class="er attributeBoxOdd"/><text style="dominant-baseline: middle; font-size: 10.2px;" transform="translate(5,123)" y="0" x="0" id="text-entity-VENDOR-42f96638-3fb7-5a4d-8ac7-43724bd8799c-attr-5-type" class="er entityLabel">CHAR</text><rect height="22" width="64.22972106933594" y="112" x="53.69499206542969" class="er attributeBoxOdd"/><text style="dominant-baseline: middle; font-size: 10.2px;" transform="translate(58.69499206542969,123)" y="0" x="0" id="text-entity-VENDOR-42f96638-3fb7-5a4d-8ac7-43724bd8799c-attr-5-name" class="er entityLabel">ven_zip</text><rect height="22" width="22.68768310546875" y="112" x="117.92471313476562" class="er attributeBoxOdd"/><text style="dominant-baseline: middle; font-size: 10.2px;" transform="translate(122.92471313476562,123)" y="0" x="0" id="text-entity-VENDOR-42f96638-3fb7-5a4d-8ac7-43724bd8799c-attr-5-key" class="er entityLabel"/><rect height="22" width="53.69499206542969" y="134" x="0" class="er attributeBoxEven"/><text style="dominant-baseline: middle; font-size: 10.2px;" transform="translate(5,145)" y="0" x="0" id="text-entity-VENDOR-42f96638-3fb7-5a4d-8ac7-43724bd8799c-attr-6-type" class="er entityLabel">VARCHAR</text><rect height="22" width="64.22972106933594" y="134" x="53.69499206542969" class="er attributeBoxEven"/><text style="dominant-baseline: middle; font-size: 10.2px;" transform="translate(58.69499206542969,145)" y="0" x="0" id="text-entity-VENDOR-42f96638-3fb7-5a4d-8ac7-43724bd8799c-attr-6-name" class="er entityLabel">ven_first</text><rect height="22" width="22.68768310546875" y="134" x="117.92471313476562" class="er attributeBoxEven"/><text style="dominant-baseline: middle; font-size: 10.2px;" transform="translate(122.92471313476562,145)" y="0" x="0" id="text-entity-VENDOR-42f96638-3fb7-5a4d-8ac7-43724bd8799c-attr-6-key" class="er entityLabel"/><rect height="22" width="53.69499206542969" y="156" x="0" class="er attributeBoxOdd"/><text style="dominant-baseline: middle; font-size: 10.2px;" transform="translate(5,167)" y="0" x="0" id="text-entity-VENDOR-42f96638-3fb7-5a4d-8ac7-43724bd8799c-attr-7-type" class="er entityLabel">VARCHAR</text><rect height="22" width="64.22972106933594" y="156" x="53.69499206542969" class="er attributeBoxOdd"/><text style="dominant-baseline: middle; font-size: 10.2px;" transform="translate(58.69499206542969,167)" y="0" x="0" id="text-entity-VENDOR-42f96638-3fb7-5a4d-8ac7-43724bd8799c-attr-7-name" class="er entityLabel">ven_middle</text><rect height="22" width="22.68768310546875" y="156" x="117.92471313476562" class="er attributeBoxOdd"/><text style="dominant-baseline: middle; font-size: 10.2px;" transform="translate(122.92471313476562,167)" y="0" x="0" id="text-entity-VENDOR-42f96638-3fb7-5a4d-8ac7-43724bd8799c-attr-7-key" class="er entityLabel"/><rect height="22" width="53.69499206542969" y="178" x="0" class="er attributeBoxEven"/><text style="dominant-baseline: middle; font-size: 10.2px;" transform="translate(5,189)" y="0" x="0" id="text-entity-VENDOR-42f96638-3fb7-5a4d-8ac7-43724bd8799c-attr-8-type" class="er entityLabel">VARCHAR</text><rect height="22" width="64.22972106933594" y="178" x="53.69499206542969" class="er attributeBoxEven"/><text style="dominant-baseline: middle; font-size: 10.2px;" transform="translate(58.69499206542969,189)" y="0" x="0" id="text-entity-VENDOR-42f96638-3fb7-5a4d-8ac7-43724bd8799c-attr-8-name" class="er entityLabel">ven_last</text><rect height="22" width="22.68768310546875" y="178" x="117.92471313476562" class="er attributeBoxEven"/><text style="dominant-baseline: middle; font-size: 10.2px;" transform="translate(122.92471313476562,189)" y="0" x="0" id="text-entity-VENDOR-42f96638-3fb7-5a4d-8ac7-43724bd8799c-attr-8-key" class="er entityLabel"/></g><g transform="translate(338.70553970336914,766 )" id="entity-ASSIGNMENT-35373a3b-5165-56d3-a345-0a6c247b877a"><rect height="90" width="160.1051483154297" y="0" x="0" class="er entityBox"/><text style="dominant-baseline: middle; text-anchor: middle; font-size: 12px;" transform="translate(80.05257415771484,12)" y="0" x="0" id="text-entity-ASSIGNMENT-35373a3b-5165-56d3-a345-0a6c247b877a" class="er entityLabel">ASSIGNMENT</text><rect height="22" width="50.703125" y="24" x="0" class="er attributeBoxOdd"/><text style="dominant-baseline: middle; font-size: 10.2px;" transform="translate(5,35)" y="0" x="0" id="text-entity-ASSIGNMENT-35373a3b-5165-56d3-a345-0a6c247b877a-attr-1-type" class="er entityLabel">NUMERIC</text><rect height="22" width="86.71434020996094" y="24" x="50.703125" class="er attributeBoxOdd"/><text style="dominant-baseline: middle; font-size: 10.2px;" transform="translate(55.703125,35)" y="0" x="0" id="text-entity-ASSIGNMENT-35373a3b-5165-56d3-a345-0a6c247b877a-attr-1-name" class="er entityLabel">asg_int_prj_num</text><rect height="22" width="22.68768310546875" y="24" x="137.41746520996094" class="er attributeBoxOdd"/><text style="dominant-baseline: middle; font-size: 10.2px;" transform="translate(142.41746520996094,35)" y="0" x="0" id="text-entity-ASSIGNMENT-35373a3b-5165-56d3-a345-0a6c247b877a-attr-1-key" class="er entityLabel">PK</text><rect height="22" width="50.703125" y="46" x="0" class="er attributeBoxEven"/><text style="dominant-baseline: middle; font-size: 10.2px;" transform="translate(5,57)" y="0" x="0" id="text-entity-ASSIGNMENT-35373a3b-5165-56d3-a345-0a6c247b877a-attr-2-type" class="er entityLabel">NUMERIC</text><rect height="22" width="86.71434020996094" y="46" x="50.703125" class="er attributeBoxEven"/><text style="dominant-baseline: middle; font-size: 10.2px;" transform="translate(55.703125,57)" y="0" x="0" id="text-entity-ASSIGNMENT-35373a3b-5165-56d3-a345-0a6c247b877a-attr-2-name" class="er entityLabel">asg_emp_id</text><rect height="22" width="22.68768310546875" y="46" x="137.41746520996094" class="er attributeBoxEven"/><text style="dominant-baseline: middle; font-size: 10.2px;" transform="translate(142.41746520996094,57)" y="0" x="0" id="text-entity-ASSIGNMENT-35373a3b-5165-56d3-a345-0a6c247b877a-attr-2-key" class="er entityLabel">PK</text><rect height="22" width="50.703125" y="68" x="0" class="er attributeBoxOdd"/><text style="dominant-baseline: middle; font-size: 10.2px;" transform="translate(5,79)" y="0" x="0" id="text-entity-ASSIGNMENT-35373a3b-5165-56d3-a345-0a6c247b877a-attr-3-type" class="er entityLabel">NUMERIC</text><rect height="22" width="86.71434020996094" y="68" x="50.703125" class="er attributeBoxOdd"/><text style="dominant-baseline: middle; font-size: 10.2px;" transform="translate(55.703125,79)" y="0" x="0" id="text-entity-ASSIGNMENT-35373a3b-5165-56d3-a345-0a6c247b877a-attr-3-name" class="er entityLabel">asg_hours</text><rect height="22" width="22.68768310546875" y="68" x="137.41746520996094" class="er attributeBoxOdd"/><text style="dominant-baseline: middle; font-size: 10.2px;" transform="translate(142.41746520996094,79)" y="0" x="0" id="text-entity-ASSIGNMENT-35373a3b-5165-56d3-a345-0a6c247b877a-attr-3-key" class="er entityLabel"/></g><rect height="14" width="42.4609375" y="191.1462860107422" x="158.57801818847656" class="er relationshipLabelBox"/><text style="text-anchor: middle; dominant-baseline: middle; font-size: 12px;" y="198.1462860107422" x="179.80848693847656" id="rel1" class="er relationshipLabel">subtype</text><rect height="14" width="42.4609375" y="510.52655029296875" x="237.76327514648438" class="er relationshipLabelBox"/><text style="text-anchor: middle; dominant-baseline: middle; font-size: 12px;" y="517.5265502929688" x="258.9937438964844" id="rel2" class="er relationshipLabel">subtype</text><rect height="14" width="42.4609375" y="510.50799560546875" x="380.93670654296875" class="er relationshipLabelBox"/><text style="text-anchor: middle; dominant-baseline: middle; font-size: 12px;" y="517.5079956054688" x="402.16717529296875" id="rel3" class="er relationshipLabel">subtype</text><rect height="14" width="46.6953125" y="488.1473693847656" x="69.6420669555664" class="er relationshipLabelBox"/><text style="text-anchor: middle; dominant-baseline: middle; font-size: 12px;" y="495.1473693847656" x="92.9897232055664" id="rel4" class="er relationshipLabel">manages</text><rect height="14" width="51.041015625" y="521.1085815429688" x="539.4320678710938" class="er relationshipLabelBox"/><text style="text-anchor: middle; dominant-baseline: middle; font-size: 12px;" y="528.1085815429688" x="564.9525756835938" id="rel5" class="er relationshipLabel">hired_for</text><rect height="14" width="17.861328125" y="735.4789428710938" x="214.92454528808594" class="er relationshipLabelBox"/><text style="text-anchor: middle; dominant-baseline: middle; font-size: 12px;" y="742.4789428710938" x="223.85520935058594" id="rel6" class="er relationshipLabel">has</text><rect height="14" width="63.302734375" y="457.9126281738281" x="711.7506103515625" class="er relationshipLabelBox"/><text style="text-anchor: middle; dominant-baseline: middle; font-size: 12px;" y="464.9126281738281" x="743.4019775390625" id="rel7" class="er relationshipLabel">assigned_to</text></svg>