<svg aria-roledescription="flowchart-v2" role="graphics-document document" viewBox="-7.5 -8 4482.453125 328.75" style="max-width: 4482.45px; background-color: white;" xmlns:xlink="http://www.w3.org/1999/xlink" xmlns="http://www.w3.org/2000/svg" width="100%" id="my-svg"><style>#my-svg{font-family:"trebuchet ms",verdana,arial,sans-serif;font-size:16px;fill:#333;}#my-svg .error-icon{fill:#552222;}#my-svg .error-text{fill:#552222;stroke:#552222;}#my-svg .edge-thickness-normal{stroke-width:2px;}#my-svg .edge-thickness-thick{stroke-width:3.5px;}#my-svg .edge-pattern-solid{stroke-dasharray:0;}#my-svg .edge-pattern-dashed{stroke-dasharray:3;}#my-svg .edge-pattern-dotted{stroke-dasharray:2;}#my-svg .marker{fill:#333333;stroke:#333333;}#my-svg .marker.cross{stroke:#333333;}#my-svg svg{font-family:"trebuchet ms",verdana,arial,sans-serif;font-size:16px;}#my-svg .label{font-family:"trebuchet ms",verdana,arial,sans-serif;color:#333;}#my-svg .cluster-label text{fill:#333;}#my-svg .cluster-label span,#my-svg p{color:#333;}#my-svg .label text,#my-svg span,#my-svg p{fill:#333;color:#333;}#my-svg .node rect,#my-svg .node circle,#my-svg .node ellipse,#my-svg .node polygon,#my-svg .node path{fill:#ECECFF;stroke:#9370DB;stroke-width:1px;}#my-svg .flowchart-label text{text-anchor:middle;}#my-svg .node .katex path{fill:#000;stroke:#000;stroke-width:1px;}#my-svg .node .label{text-align:center;}#my-svg .node.clickable{cursor:pointer;}#my-svg .arrowheadPath{fill:#333333;}#my-svg .edgePath .path{stroke:#333333;stroke-width:2.0px;}#my-svg .flowchart-link{stroke:#333333;fill:none;}#my-svg .edgeLabel{background-color:#e8e8e8;text-align:center;}#my-svg .edgeLabel rect{opacity:0.5;background-color:#e8e8e8;fill:#e8e8e8;}#my-svg .labelBkg{background-color:rgba(232, 232, 232, 0.5);}#my-svg .cluster rect{fill:#ffffde;stroke:#aaaa33;stroke-width:1px;}#my-svg .cluster text{fill:#333;}#my-svg .cluster span,#my-svg p{color:#333;}#my-svg div.mermaidTooltip{position:absolute;text-align:center;max-width:200px;padding:2px;font-family:"trebuchet ms",verdana,arial,sans-serif;font-size:12px;background:hsl(80, 100%, 96.2745098039%);border:1px solid #aaaa33;border-radius:2px;pointer-events:none;z-index:100;}#my-svg .flowchartTitleText{text-anchor:middle;font-size:18px;fill:#333;}#my-svg :root{--mermaid-font-family:"trebuchet ms",verdana,arial,sans-serif;}</style><g><marker orient="auto" markerHeight="12" markerWidth="12" markerUnits="userSpaceOnUse" refY="5" refX="6" viewBox="0 0 10 10" class="marker flowchart" id="my-svg_flowchart-pointEnd"><path style="stroke-width: 1; stroke-dasharray: 1, 0;" class="arrowMarkerPath" d="M 0 0 L 10 5 L 0 10 z"/></marker><marker orient="auto" markerHeight="12" markerWidth="12" markerUnits="userSpaceOnUse" refY="5" refX="4.5" viewBox="0 0 10 10" class="marker flowchart" id="my-svg_flowchart-pointStart"><path style="stroke-width: 1; stroke-dasharray: 1, 0;" class="arrowMarkerPath" d="M 0 5 L 10 10 L 10 0 z"/></marker><marker orient="auto" markerHeight="11" markerWidth="11" markerUnits="userSpaceOnUse" refY="5" refX="11" viewBox="0 0 10 10" class="marker flowchart" id="my-svg_flowchart-circleEnd"><circle style="stroke-width: 1; stroke-dasharray: 1, 0;" class="arrowMarkerPath" r="5" cy="5" cx="5"/></marker><marker orient="auto" markerHeight="11" markerWidth="11" markerUnits="userSpaceOnUse" refY="5" refX="-1" viewBox="0 0 10 10" class="marker flowchart" id="my-svg_flowchart-circleStart"><circle style="stroke-width: 1; stroke-dasharray: 1, 0;" class="arrowMarkerPath" r="5" cy="5" cx="5"/></marker><marker orient="auto" markerHeight="11" markerWidth="11" markerUnits="userSpaceOnUse" refY="5.2" refX="12" viewBox="0 0 11 11" class="marker cross flowchart" id="my-svg_flowchart-crossEnd"><path style="stroke-width: 2; stroke-dasharray: 1, 0;" class="arrowMarkerPath" d="M 1,1 l 9,9 M 10,1 l -9,9"/></marker><marker orient="auto" markerHeight="11" markerWidth="11" markerUnits="userSpaceOnUse" refY="5.2" refX="-1" viewBox="0 0 11 11" class="marker cross flowchart" id="my-svg_flowchart-crossStart"><path style="stroke-width: 2; stroke-dasharray: 1, 0;" class="arrowMarkerPath" d="M 1,1 l 9,9 M 10,1 l -9,9"/></marker><g class="root"><g class="clusters"/><g class="edgePaths"/><g class="edgeLabels"/><g class="nodes"><g transform="translate(-7.5, -5.625)" class="root"><g class="clusters"><g id="F3" class="cluster default flowchart-label"><rect height="308" width="637.734375" y="8" x="8" ry="0" rx="0" style=""/><g transform="translate(123.75, 8)" class="cluster-label"><foreignObject height="19" width="406.234375"><div style="display: inline-block; white-space: nowrap;" xmlns="http://www.w3.org/1999/xhtml"><span class="nodeLabel">Figure 3: Validated Information-Preserving Logical Model</span></div></foreignObject></g></g></g><g class="edgePaths"><path style="fill:none;" class="edge-thickness-normal edge-pattern-solid flowchart-link LS-L_EMP LE-L_MGR" id="L-L_EMP-L_MGR-0" d="M88.241,153L98.034,137.5C107.827,122,127.414,91,141.373,75.5C155.333,60,163.667,60,167.833,60L172,60"/><path style="fill:none;" class="edge-thickness-normal edge-pattern-solid flowchart-link LS-L_PRJ LE-L_IP" id="L-L_PRJ-L_IP-0" d="M249.701,127L254.941,124.5C260.181,122,270.661,117,286.31,110.333C301.96,103.667,322.779,95.333,333.189,91.167L343.599,87"/><path style="fill:none;" class="edge-thickness-normal edge-pattern-solid flowchart-link LS-L_PRJ LE-L_EP" id="L-L_PRJ-L_EP-0" d="M249.701,161L254.941,163.5C260.181,166,270.661,171,286.31,177.667C301.96,184.333,322.779,192.667,333.189,196.833L343.599,201"/><path marker-end="url(#my-svg_flowchart-pointEnd)" style="fill:none;" class="edge-thickness-normal edge-pattern-solid flowchart-link LS-L_MGR LE-L_IP" id="L-L_MGR-L_IP-0" d="M256.141,60L260.307,60C264.474,60,272.807,60,280.496,60.336C288.184,60.671,295.227,61.342,298.749,61.678L302.271,62.014"/><path marker-end="url(#my-svg_flowchart-pointEnd)" style="fill:none;" class="edge-thickness-normal edge-pattern-solid flowchart-link LS-L_VEN LE-L_EP" id="L-L_VEN-L_EP-0" d="M250.617,228L255.704,228C260.792,228,270.966,228,279.341,227.687C287.715,227.373,294.29,226.747,297.577,226.434L300.865,226.12"/><path marker-end="url(#my-svg_flowchart-pointEnd)" style="fill:none;" class="edge-thickness-normal edge-pattern-solid flowchart-link LS-L_IP LE-L_ASG" id="L-L_IP-L_ASG-0" d="M464.594,70L468.995,70C473.396,70,482.198,70,496.761,83.135C511.324,96.269,531.648,122.539,541.81,135.673L551.972,148.808"/><path marker-end="url(#my-svg_flowchart-pointEnd)" style="fill:none;" class="edge-thickness-normal edge-pattern-solid flowchart-link LS-L_EMP LE-L_ASG" id="L-L_EMP-L_ASG-0" d="M88.241,187L98.034,202.5C107.827,218,127.414,249,148.385,264.5C169.357,280,191.714,280,214.07,280C236.427,280,258.784,280,287.451,280C316.117,280,351.094,280,386.07,280C421.047,280,456.023,280,483.905,265.223C511.787,250.445,532.574,220.89,542.968,206.113L553.361,191.335"/></g><g class="edgeLabels"><g class="edgeLabel"><g transform="translate(0, 0)" class="label"><foreignObject height="0" width="0"><div style="display: inline-block; white-space: nowrap;" xmlns="http://www.w3.org/1999/xhtml"><span class="edgeLabel"></span></div></foreignObject></g></g><g class="edgeLabel"><g transform="translate(0, 0)" class="label"><foreignObject height="0" width="0"><div style="display: inline-block; white-space: nowrap;" xmlns="http://www.w3.org/1999/xhtml"><span class="edgeLabel"></span></div></foreignObject></g></g><g class="edgeLabel"><g transform="translate(0, 0)" class="label"><foreignObject height="0" width="0"><div style="display: inline-block; white-space: nowrap;" xmlns="http://www.w3.org/1999/xhtml"><span class="edgeLabel"></span></div></foreignObject></g></g><g class="edgeLabel"><g transform="translate(0, 0)" class="label"><foreignObject height="0" width="0"><div style="display: inline-block; white-space: nowrap;" xmlns="http://www.w3.org/1999/xhtml"><span class="edgeLabel"></span></div></foreignObject></g></g><g class="edgeLabel"><g transform="translate(0, 0)" class="label"><foreignObject height="0" width="0"><div style="display: inline-block; white-space: nowrap;" xmlns="http://www.w3.org/1999/xhtml"><span class="edgeLabel"></span></div></foreignObject></g></g><g class="edgeLabel"><g transform="translate(0, 0)" class="label"><foreignObject height="0" width="0"><div style="display: inline-block; white-space: nowrap;" xmlns="http://www.w3.org/1999/xhtml"><span class="edgeLabel"></span></div></foreignObject></g></g><g class="edgeLabel"><g transform="translate(0, 0)" class="label"><foreignObject height="0" width="0"><div style="display: inline-block; white-space: nowrap;" xmlns="http://www.w3.org/1999/xhtml"><span class="edgeLabel"></span></div></foreignObject></g></g></g><g class="nodes"><g transform="translate(77.5, 170)" data-id="L_EMP" data-node="true" id="flowchart-L_EMP-28" class="node default default flowchart-label"><rect height="34" width="89" y="-17" x="-44.5" ry="0" rx="0" style="" class="basic label-container"/><g transform="translate(-37, -9.5)" style="" class="label"><rect/><foreignObject height="19" width="74"><div style="display: inline-block; white-space: nowrap;" xmlns="http://www.w3.org/1999/xhtml"><span class="nodeLabel">EMPLOYEE</span></div></foreignObject></g></g><g transform="translate(214.0703125, 60)" data-id="L_MGR" data-node="true" id="flowchart-L_MGR-29" class="node default default flowchart-label"><rect height="34" width="84.140625" y="-17" x="-42.0703125" ry="0" rx="0" style="" class="basic label-container"/><g transform="translate(-34.5703125, -9.5)" style="" class="label"><rect/><foreignObject height="19" width="69.140625"><div style="display: inline-block; white-space: nowrap;" xmlns="http://www.w3.org/1999/xhtml"><span class="nodeLabel">MANAGER</span></div></foreignObject></g></g><g transform="translate(214.0703125, 144)" data-id="L_PRJ" data-node="true" id="flowchart-L_PRJ-30" class="node default default flowchart-label"><rect height="34" width="79.078125" y="-17" x="-39.5390625" ry="0" rx="0" style="" class="basic label-container"/><g transform="translate(-32.0390625, -9.5)" style="" class="label"><rect/><foreignObject height="19" width="64.078125"><div style="display: inline-block; white-space: nowrap;" xmlns="http://www.w3.org/1999/xhtml"><span class="nodeLabel">PROJECT</span></div></foreignObject></g></g><g transform="translate(386.0703125, 70)" data-id="L_IP" data-node="true" id="flowchart-L_IP-31" class="node default default flowchart-label"><rect height="34" width="157.046875" y="-17" x="-78.5234375" ry="0" rx="0" style="" class="basic label-container"/><g transform="translate(-71.0234375, -9.5)" style="" class="label"><rect/><foreignObject height="19" width="142.046875"><div style="display: inline-block; white-space: nowrap;" xmlns="http://www.w3.org/1999/xhtml"><span class="nodeLabel">INTERNAL_PROJECT</span></div></foreignObject></g></g><g transform="translate(386.0703125, 218)" data-id="L_EP" data-node="true" id="flowchart-L_EP-32" class="node default default flowchart-label"><rect height="34" width="159.859375" y="-17" x="-79.9296875" ry="0" rx="0" style="" class="basic label-container"/><g transform="translate(-72.4296875, -9.5)" style="" class="label"><rect/><foreignObject height="19" width="144.859375"><div style="display: inline-block; white-space: nowrap;" xmlns="http://www.w3.org/1999/xhtml"><span class="nodeLabel">EXTERNAL_PROJECT</span></div></foreignObject></g></g><g transform="translate(214.0703125, 228)" data-id="L_VEN" data-node="true" id="flowchart-L_VEN-33" class="node default default flowchart-label"><rect height="34" width="73.09375" y="-17" x="-36.546875" ry="0" rx="0" style="" class="basic label-container"/><g transform="translate(-29.046875, -9.5)" style="" class="label"><rect/><foreignObject height="19" width="58.09375"><div style="display: inline-block; white-space: nowrap;" xmlns="http://www.w3.org/1999/xhtml"><span class="nodeLabel">VENDOR</span></div></foreignObject></g></g><g transform="translate(568.3671875, 170)" data-id="L_ASG" data-node="true" id="flowchart-L_ASG-34" class="node default default flowchart-label"><rect height="34" width="104.734375" y="-17" x="-52.3671875" ry="0" rx="0" style="" class="basic label-container"/><g transform="translate(-44.8671875, -9.5)" style="" class="label"><rect/><foreignObject height="19" width="89.734375"><div style="display: inline-block; white-space: nowrap;" xmlns="http://www.w3.org/1999/xhtml"><span class="nodeLabel">ASSIGNMENT</span></div></foreignObject></g></g></g></g><g transform="translate(680.234375, 106.375)" class="root"><g class="clusters"><g id="F2" class="cluster default flowchart-label"><rect height="84" width="2782.03125" y="8" x="8" ry="0" rx="0" style=""/><g transform="translate(1250.1796875, 8)" class="cluster-label"><foreignObject height="19" width="297.671875"><div style="display: inline-block; white-space: nowrap;" xmlns="http://www.w3.org/1999/xhtml"><span class="nodeLabel">Figure 2: Validated Dependency Diagrams</span></div></foreignObject></g></g></g><g class="edgePaths"/><g class="edgeLabels"/><g class="nodes"><g transform="translate(162.75, 50)" data-id="D1" data-node="true" id="flowchart-D1-21" class="node default default flowchart-label"><rect height="34" width="239.5" y="-17" x="-119.75" ry="0" rx="0" style="" class="basic label-container"/><g transform="translate(-112.25, -9.5)" style="" class="label"><rect/><foreignObject height="19" width="224.5"><div style="display: inline-block; white-space: nowrap;" xmlns="http://www.w3.org/1999/xhtml"><span class="nodeLabel">EMPLOYEE: emp_id -&gt; non-keys</span></div></foreignObject></g></g><g transform="translate(477.4453125, 50)" data-id="D2" data-node="true" id="flowchart-D2-22" class="node default default flowchart-label"><rect height="34" width="289.890625" y="-17" x="-144.9453125" ry="0" rx="0" style="" class="basic label-container"/><g transform="translate(-137.4453125, -9.5)" style="" class="label"><rect/><foreignObject height="19" width="274.890625"><div style="display: inline-block; white-space: nowrap;" xmlns="http://www.w3.org/1999/xhtml"><span class="nodeLabel">MANAGER: mng_emp_id -&gt; mng_bonus</span></div></foreignObject></g></g><g transform="translate(789.9765625, 50)" data-id="D3" data-node="true" id="flowchart-D3-23" class="node default default flowchart-label"><rect height="34" width="235.171875" y="-17" x="-117.5859375" ry="0" rx="0" style="" class="basic label-container"/><g transform="translate(-110.0859375, -9.5)" style="" class="label"><rect/><foreignObject height="19" width="220.171875"><div style="display: inline-block; white-space: nowrap;" xmlns="http://www.w3.org/1999/xhtml"><span class="nodeLabel">PROJECT: prj_num -&gt; non-keys</span></div></foreignObject></g></g><g transform="translate(1196.7578125, 50)" data-id="D4" data-node="true" id="flowchart-D4-24" class="node default default flowchart-label"><rect height="34" width="478.390625" y="-17" x="-239.1953125" ry="0" rx="0" style="" class="basic label-container"/><g transform="translate(-231.6953125, -9.5)" style="" class="label"><rect/><foreignObject height="19" width="463.390625"><div style="display: inline-block; white-space: nowrap;" xmlns="http://www.w3.org/1999/xhtml"><span class="nodeLabel">INTERNAL_PROJECT: int_prj_num -&gt; int_rating, int_mng_emp_id</span></div></foreignObject></g></g><g transform="translate(1731.828125, 50)" data-id="D5" data-node="true" id="flowchart-D5-25" class="node default default flowchart-label"><rect height="34" width="491.75" y="-17" x="-245.875" ry="0" rx="0" style="" class="basic label-container"/><g transform="translate(-238.375, -9.5)" style="" class="label"><rect/><foreignObject height="19" width="476.75"><div style="display: inline-block; white-space: nowrap;" xmlns="http://www.w3.org/1999/xhtml"><span class="nodeLabel">EXTERNAL_PROJECT: ext_prj_num -&gt; ext_contcost, ext_ven_name</span></div></foreignObject></g></g><g transform="translate(2149.53125, 50)" data-id="D6" data-node="true" id="flowchart-D6-26" class="node default default flowchart-label"><rect height="34" width="243.65625" y="-17" x="-121.828125" ry="0" rx="0" style="" class="basic label-container"/><g transform="translate(-114.328125, -9.5)" style="" class="label"><rect/><foreignObject height="19" width="228.65625"><div style="display: inline-block; white-space: nowrap;" xmlns="http://www.w3.org/1999/xhtml"><span class="nodeLabel">VENDOR: ven_name -&gt; non-keys</span></div></foreignObject></g></g><g transform="translate(2538.1953125, 50)" data-id="D7" data-node="true" id="flowchart-D7-27" class="node default default flowchart-label"><rect height="34" width="433.671875" y="-17" x="-216.8359375" ry="0" rx="0" style="" class="basic label-container"/><g transform="translate(-209.3359375, -9.5)" style="" class="label"><rect/><foreignObject height="19" width="418.671875"><div style="display: inline-block; white-space: nowrap;" xmlns="http://www.w3.org/1999/xhtml"><span class="nodeLabel">ASSIGNMENT: (asg_int_prj_num, asg_emp_id) -&gt; asg_hours</span></div></foreignObject></g></g></g></g><g transform="translate(3512.265625, -8)" class="root"><g class="clusters"><g id="F1" class="cluster default flowchart-label"><rect height="312.75" width="946.6875" y="8" x="8" ry="0" rx="0" style=""/><g transform="translate(342.171875, 8)" class="cluster-label"><foreignObject height="19" width="278.34375"><div style="display: inline-block; white-space: nowrap;" xmlns="http://www.w3.org/1999/xhtml"><span class="nodeLabel">Figure 1: Validated Directed-Arc Model</span></div></foreignObject></g></g></g><g class="edgePaths"><path marker-end="url(#my-svg_flowchart-pointEnd)" style="fill:none;" class="edge-thickness-normal edge-pattern-solid flowchart-link LS-F1_EMP LE-F1_MGR" id="L-F1_EMP-F1_MGR-0" d="M94.778,153L110.531,137.5C126.284,122,157.79,91,183.876,75.5C209.963,60,230.628,60,240.961,60L251.294,60"/><path marker-end="url(#my-svg_flowchart-pointEnd)" style="fill:none;" class="edge-thickness-normal edge-pattern-solid flowchart-link LS-F1_PRJ LE-F1_IP" id="L-F1_PRJ-F1_IP-0" d="M338.203,137.469L354.316,134.808C370.43,132.146,402.656,126.823,435.18,120.202C467.705,113.581,500.527,105.662,516.938,101.703L533.349,97.743"/><path marker-end="url(#my-svg_flowchart-pointEnd)" style="fill:none;" class="edge-thickness-normal edge-pattern-solid flowchart-link LS-F1_PRJ LE-F1_EP" id="L-F1_PRJ-F1_EP-0" d="M338.203,150.531L354.316,153.192C370.43,155.854,402.656,161.177,435.18,167.798C467.705,174.419,500.527,182.338,516.938,186.297L533.349,190.257"/><path marker-end="url(#my-svg_flowchart-pointEnd)" style="fill:none;" class="edge-thickness-normal edge-pattern-solid flowchart-link LS-F1_MGR LE-F1_IP" id="L-F1_MGR-F1_IP-0" d="M340.734,60L356.426,60C372.117,60,403.5,60,434.239,61.686C464.979,63.371,495.075,66.743,510.123,68.428L525.17,70.114"/><path marker-end="url(#my-svg_flowchart-pointEnd)" style="fill:none;" class="edge-thickness-normal edge-pattern-solid flowchart-link LS-F1_VEN LE-F1_EP" id="L-F1_VEN-F1_EP-0" d="M335.211,228L351.823,228C368.435,228,401.659,228,433.084,226.341C464.51,224.681,494.137,221.362,508.951,219.703L523.764,218.044"/><path marker-end="url(#my-svg_flowchart-pointEnd)" style="fill:none;" class="edge-thickness-normal edge-pattern-solid flowchart-link LS-F1_IP LE-F1_ASG" id="L-F1_IP-F1_ASG-0" d="M687.484,79.5L699.057,79.5C710.63,79.5,733.776,79.5,760.94,91.219C788.104,102.938,819.286,126.377,834.877,138.096L850.467,149.815"/><path marker-end="url(#my-svg_flowchart-pointEnd)" style="fill:none;" class="edge-thickness-normal edge-pattern-solid flowchart-link LS-F1_EMP LE-F1_ASG" id="L-F1_EMP-F1_ASG-0" d="M94.778,187L110.531,202.5C126.284,218,157.79,249,191.772,264.5C225.753,280,262.208,280,303.139,280C344.07,280,389.477,280,441.193,280C492.909,280,550.935,280,604.608,280C658.281,280,707.602,280,748.575,265.096C789.548,250.192,822.174,220.383,838.487,205.479L854.8,190.575"/></g><g class="edgeLabels"><g transform="translate(189.296875, 60)" class="edgeLabel"><g transform="translate(-42.296875, -9.5)" class="label"><foreignObject height="19" width="84.59375"><div style="display: inline-block; white-space: nowrap;" xmlns="http://www.w3.org/1999/xhtml"><span class="edgeLabel">Subtype arc</span></div></foreignObject></g></g><g transform="translate(434.8828125, 121.5)" class="edgeLabel"><g transform="translate(-42.296875, -9.5)" class="label"><foreignObject height="19" width="84.59375"><div style="display: inline-block; white-space: nowrap;" xmlns="http://www.w3.org/1999/xhtml"><span class="edgeLabel">Subtype arc</span></div></foreignObject></g></g><g transform="translate(434.8828125, 166.5)" class="edgeLabel"><g transform="translate(-42.296875, -9.5)" class="label"><foreignObject height="19" width="84.59375"><div style="display: inline-block; white-space: nowrap;" xmlns="http://www.w3.org/1999/xhtml"><span class="edgeLabel">Subtype arc</span></div></foreignObject></g></g><g transform="translate(434.8828125, 60)" class="edgeLabel"><g transform="translate(-31.0390625, -9.5)" class="label"><foreignObject height="19" width="62.078125"><div style="display: inline-block; white-space: nowrap;" xmlns="http://www.w3.org/1999/xhtml"><span class="edgeLabel">manages</span></div></foreignObject></g></g><g transform="translate(434.8828125, 228)" class="edgeLabel"><g transform="translate(-33.140625, -9.5)" class="label"><foreignObject height="19" width="66.28125"><div style="display: inline-block; white-space: nowrap;" xmlns="http://www.w3.org/1999/xhtml"><span class="edgeLabel">hired_for</span></div></foreignObject></g></g><g transform="translate(756.921875, 79.5)" class="edgeLabel"><g transform="translate(-43.03125, -9.5)" class="label"><foreignObject height="19" width="86.0625"><div style="display: inline-block; white-space: nowrap;" xmlns="http://www.w3.org/1999/xhtml"><span class="edgeLabel">assigned_on</span></div></foreignObject></g></g><g transform="translate(434.8828125, 280)" class="edgeLabel"><g transform="translate(-69.1484375, -9.5)" class="label"><foreignObject height="19" width="138.296875"><div style="display: inline-block; white-space: nowrap;" xmlns="http://www.w3.org/1999/xhtml"><span class="edgeLabel">assigned_employee</span></div></foreignObject></g></g></g><g class="nodes"><g transform="translate(77.5, 170)" data-id="F1_EMP" data-node="true" id="flowchart-F1_EMP-0" class="node default default flowchart-label"><rect height="34" width="89" y="-17" x="-44.5" ry="0" rx="0" style="" class="basic label-container"/><g transform="translate(-37, -9.5)" style="" class="label"><rect/><foreignObject height="19" width="74"><div style="display: inline-block; white-space: nowrap;" xmlns="http://www.w3.org/1999/xhtml"><span class="nodeLabel">EMPLOYEE</span></div></foreignObject></g></g><g transform="translate(298.6640625, 60)" data-id="F1_MGR" data-node="true" id="flowchart-F1_MGR-1" class="node default default flowchart-label"><rect height="34" width="84.140625" y="-17" x="-42.0703125" ry="0" rx="0" style="" class="basic label-container"/><g transform="translate(-34.5703125, -9.5)" style="" class="label"><rect/><foreignObject height="19" width="69.140625"><div style="display: inline-block; white-space: nowrap;" xmlns="http://www.w3.org/1999/xhtml"><span class="nodeLabel">MANAGER</span></div></foreignObject></g></g><g transform="translate(298.6640625, 144)" data-id="F1_PRJ" data-node="true" id="flowchart-F1_PRJ-2" class="node default default flowchart-label"><rect height="34" width="79.078125" y="-17" x="-39.5390625" ry="0" rx="0" style="" class="basic label-container"/><g transform="translate(-32.0390625, -9.5)" style="" class="label"><rect/><foreignObject height="19" width="64.078125"><div style="display: inline-block; white-space: nowrap;" xmlns="http://www.w3.org/1999/xhtml"><span class="nodeLabel">PROJECT</span></div></foreignObject></g></g><g transform="translate(608.9609375, 79.5)" data-id="F1_IP" data-node="true" id="flowchart-F1_IP-3" class="node default default flowchart-label"><rect height="34" width="157.046875" y="-17" x="-78.5234375" ry="0" rx="0" style="" class="basic label-container"/><g transform="translate(-71.0234375, -9.5)" style="" class="label"><rect/><foreignObject height="19" width="142.046875"><div style="display: inline-block; white-space: nowrap;" xmlns="http://www.w3.org/1999/xhtml"><span class="nodeLabel">INTERNAL_PROJECT</span></div></foreignObject></g></g><g transform="translate(608.9609375, 208.5)" data-id="F1_EP" data-node="true" id="flowchart-F1_EP-4" class="node default default flowchart-label"><rect height="34" width="159.859375" y="-17" x="-79.9296875" ry="0" rx="0" style="" class="basic label-container"/><g transform="translate(-72.4296875, -9.5)" style="" class="label"><rect/><foreignObject height="19" width="144.859375"><div style="display: inline-block; white-space: nowrap;" xmlns="http://www.w3.org/1999/xhtml"><span class="nodeLabel">EXTERNAL_PROJECT</span></div></foreignObject></g></g><g transform="translate(298.6640625, 228)" data-id="F1_VEN" data-node="true" id="flowchart-F1_VEN-5" class="node default default flowchart-label"><rect height="34" width="73.09375" y="-17" x="-36.546875" ry="0" rx="0" style="" class="basic label-container"/><g transform="translate(-29.046875, -9.5)" style="" class="label"><rect/><foreignObject height="19" width="58.09375"><div style="display: inline-block; white-space: nowrap;" xmlns="http://www.w3.org/1999/xhtml"><span class="nodeLabel">VENDOR</span></div></foreignObject></g></g><g transform="translate(877.3203125, 170)" data-id="F1_ASG" data-node="true" id="flowchart-F1_ASG-6" class="node default default flowchart-label"><rect height="34" width="104.734375" y="-17" x="-52.3671875" ry="0" rx="0" style="" class="basic label-container"/><g transform="translate(-44.8671875, -9.5)" style="" class="label"><rect/><foreignObject height="19" width="89.734375"><div style="display: inline-block; white-space: nowrap;" xmlns="http://www.w3.org/1999/xhtml"><span class="nodeLabel">ASSIGNMENT</span></div></foreignObject></g></g></g></g></g></g></g></svg>